<svg width="1200" height="630" viewBox="0 0 1200 630" xmlns="http://www.w3.org/2000/svg">
  <rect width="1200" height="630" fill="#E8587A"/>
  <line x1="0" y1="0" x2="1200" y2="630" stroke="#F09E8C" stroke-width="0.3" opacity="0.15"/>
  <line x1="0" y1="630" x2="1200" y2="0" stroke="#F09E8C" stroke-width="0.3" opacity="0.15"/>
  <line x1="600" y1="0" x2="600" y2="630" stroke="#F09E8C" stroke-width="0.3" opacity="0.1"/>
  <line x1="0" y1="315" x2="1200" y2="315" stroke="#F09E8C" stroke-width="0.3" opacity="0.1"/>
  <rect x="0" y="0" width="1200" height="3" fill="#6B2D5B"/>
  <rect x="0" y="627" width="1200" height="3" fill="#6B2D5B"/>
  <rect x="0" y="0" width="3" height="630" fill="#6B2D5B"/>
  <rect x="1197" y="0" width="3" height="630" fill="#6B2D5B"/>
  <rect x="20" y="20" width="40" height="2" fill="#FEF0DB" opacity="0.5"/>
  <rect x="20" y="20" width="2" height="40" fill="#FEF0DB" opacity="0.5"/>
  <rect x="1140" y="20" width="40" height="2" fill="#FEF0DB" opacity="0.5"/>
  <rect x="1178" y="20" width="2" height="40" fill="#FEF0DB" opacity="0.5"/>
  <rect x="20" y="608" width="40" height="2" fill="#FEF0DB" opacity="0.5"/>
  <rect x="20" y="570" width="2" height="40" fill="#FEF0DB" opacity="0.5"/>
  <rect x="1140" y="608" width="40" height="2" fill="#FEF0DB" opacity="0.5"/>
  <rect x="1178" y="570" width="2" height="40" fill="#FEF0DB" opacity="0.5"/>
  <circle cx="600" cy="162" r="3" fill="none" stroke="#FEF0DB" stroke-width="1.2" opacity="0.6"/>
  <circle cx="600" cy="162" r="1.2" fill="#FEF0DB" opacity="0.6"/>
  <line x1="540" y1="162" x2="590" y2="162" stroke="#FEF0DB" stroke-width="0.8" opacity="0.4"/>
  <line x1="610" y1="162" x2="660" y2="162" stroke="#FEF0DB" stroke-width="0.8" opacity="0.4"/>
  <text x="600" y="208" text-anchor="middle" font-family="'Montserrat', sans-serif" font-size="18" fill="#FEF0DB" letter-spacing="8" opacity="0.85">A FRAMEWORK FOR RENEWAL</text>
  <text x="600" y="318" text-anchor="middle" font-family="'Montserrat', sans-serif" font-size="128" font-weight="400" fill="#FEF0DB" letter-spacing="4">Day Zero</text>
  <line x1="420" y1="348" x2="780" y2="348" stroke="#FEF0DB" stroke-width="1" opacity="0.4"/>
  <circle cx="600" cy="348" r="3" fill="#FEF0DB" opacity="0.5"/>
  <text x="600" y="400" text-anchor="middle" font-family="'Montserrat', sans-serif" font-size="22" fill="#FEF0DB" font-style="italic" opacity="0.9">All past issues are forgiven and forgotten.</text>
  <text x="600" y="432" text-anchor="middle" font-family="'Montserrat', sans-serif" font-size="22" fill="#FEF0DB" font-style="italic" opacity="0.9">Today we begin again.</text>
  <circle cx="600" cy="490" r="3" fill="none" stroke="#FEF0DB" stroke-width="1" opacity="0.4"/>
  <circle cx="600" cy="490" r="1.2" fill="#FEF0DB" opacity="0.4"/>
  <line x1="540" y1="490" x2="590" y2="490" stroke="#FEF0DB" stroke-width="0.8" opacity="0.3"/>
  <line x1="610" y1="490" x2="660" y2="490" stroke="#FEF0DB" stroke-width="0.8" opacity="0.3"/>
  <text x="600" y="536" text-anchor="middle" font-family="'Montserrat', sans-serif" font-size="15" fill="#FEF0DB" letter-spacing="3" opacity="0.6">day-zero-preptechapps-projects.vercel.app</text>
</svg>
