<svg width="1200" height="630" viewBox="0 0 1200 630" xmlns="http://www.w3.org/2000/svg">
  <rect width="1200" height="630" fill="#3AAFB9"/>
  <line x1="0" y1="0" x2="1200" y2="630" stroke="#fff" stroke-width="0.3" opacity="0.08"/>
  <line x1="0" y1="630" x2="1200" y2="0" stroke="#fff" stroke-width="0.3" opacity="0.08"/>
  <line x1="600" y1="0" x2="600" y2="630" stroke="#fff" stroke-width="0.3" opacity="0.05"/>
  <line x1="0" y1="315" x2="1200" y2="315" stroke="#fff" stroke-width="0.3" opacity="0.05"/>
  <rect x="0" y="0" width="1200" height="3" fill="#1D7874"/>
  <rect x="0" y="627" width="1200" height="3" fill="#1D7874"/>
  <rect x="0" y="0" width="3" height="630" fill="#1D7874"/>
  <rect x="1197" y="0" width="3" height="630" fill="#1D7874"/>
  <rect x="20" y="20" width="40" height="2" fill="#fff" opacity="0.4"/>
  <rect x="20" y="20" width="2" height="40" fill="#fff" opacity="0.4"/>
  <rect x="1140" y="20" width="40" height="2" fill="#fff" opacity="0.4"/>
  <rect x="1178" y="20" width="2" height="40" fill="#fff" opacity="0.4"/>
  <rect x="20" y="608" width="40" height="2" fill="#fff" opacity="0.4"/>
  <rect x="20" y="570" width="2" height="40" fill="#fff" opacity="0.4"/>
  <rect x="1140" y="608" width="40" height="2" fill="#fff" opacity="0.4"/>
  <rect x="1178" y="570" width="2" height="40" fill="#fff" opacity="0.4"/>
  <text x="600" y="270" text-anchor="middle" font-family="'Montserrat', sans-serif" font-size="128" font-weight="700" fill="#fff" letter-spacing="4">Day Zero</text>
  <line x1="420" y1="300" x2="780" y2="300" stroke="#fff" stroke-width="1" opacity="0.4"/>
  <circle cx="600" cy="300" r="3" fill="#fff" opacity="0.5"/>
  <text x="600" y="348" text-anchor="middle" font-family="'Montserrat', sans-serif" font-size="18" fill="#fff" letter-spacing="8" opacity="0.9">A FRAMEWORK FOR RENEWAL</text>
  <text x="600" y="410" text-anchor="middle" font-family="'Montserrat', sans-serif" font-size="22" fill="#fff" font-style="italic" opacity="0.8">All past issues are forgiven and forgotten.</text>
  <text x="600" y="442" text-anchor="middle" font-family="'Montserrat', sans-serif" font-size="22" fill="#fff" font-style="italic" opacity="0.8">Today we begin again.</text>
  <text x="600" y="546" text-anchor="middle" font-family="'Montserrat', sans-serif" font-size="15" fill="#fff" letter-spacing="3" opacity="0.5">day-zero-preptechapps-projects.vercel.app</text>
</svg>
